<svg width="28" height="28" viewBox="0 0 28 28" fill="none" xmlns="http://www.w3.org/2000/svg">
<path d="M25.6667 25.6667L23.3333 23.3333M13.4167 24.5C14.8722 24.5 16.3134 24.2133 17.6581 23.6563C19.0028 23.0994 20.2246 22.283 21.2538 21.2538C22.283 20.2246 23.0993 19.0028 23.6563 17.6581C24.2133 16.3134 24.5 14.8722 24.5 13.4167C24.5 11.9612 24.2133 10.52 23.6563 9.17527C23.0993 7.83058 22.283 6.60876 21.2538 5.57958C20.2246 4.55039 19.0028 3.734 17.6581 3.17701C16.3134 2.62002 14.8722 2.33334 13.4167 2.33334C10.4772 2.33334 7.6581 3.50105 5.57957 5.57958C3.50104 7.6581 2.33334 10.4772 2.33334 13.4167C2.33334 16.3562 3.50104 19.1752 5.57957 21.2538C7.6581 23.3323 10.4772 24.5 13.4167 24.5V24.5Z" stroke="#777777" stroke-width="1.5" stroke-linecap="round" stroke-linejoin="round"/>
</svg>
